<?xml version="1.0" standalone="no"?>
<!DOCTYPE svg PUBLIC "-//W3C//DTD SVG 20010904//EN"
 "http://www.w3.org/TR/2001/REC-SVG-20010904/DTD/svg10.dtd">
<svg version="1.0" xmlns="http://www.w3.org/2000/svg"
 width="1080.000000pt" height="1080.000000pt" viewBox="0 0 1080.000000 1080.000000"
 preserveAspectRatio="xMidYMid meet">
<metadata>
Created by potrace 1.14, written by Peter Selinger 2001-2017
</metadata>
<g transform="translate(0.000000,1080.000000) scale(0.100000,-0.100000)"
fill="#000000" stroke="none">
<path d="M396 10784 c-140 -34 -272 -137 -335 -262 -63 -124 -61 -81 -61
-1268 0 -1046 1 -1083 20 -1158 11 -43 34 -103 51 -133 41 -71 126 -153 198
-192 117 -62 87 -61 1189 -61 551 0 1002 -2 1002 -5 0 -3 -7 -22 -15 -42 -23
-54 -17 -54 11 0 l24 47 73 0 c241 0 442 155 502 387 11 41 15 111 15 250 l0
192 33 5 c17 2 102 16 187 31 85 15 243 42 350 61 107 19 203 34 213 34 16 0
17 -16 17 -195 l0 -195 -49 -63 c-88 -112 -171 -308 -171 -404 0 -80 26 -160
105 -320 41 -84 75 -158 76 -165 1 -7 5 -2 9 12 7 22 8 21 9 -12 2 -57 16 -84
64 -117 41 -28 64 -57 53 -68 -2 -3 -23 12 -45 33 -23 20 -44 35 -46 32 -6 -5
100 -94 135 -113 14 -8 36 -16 50 -19 14 -3 48 -26 77 -51 29 -25 69 -52 90
-60 l38 -14 -32 0 c-26 -1 -45 10 -89 50 -52 47 -59 51 -93 44 -20 -3 -56 -9
-79 -12 -24 -3 -46 -12 -49 -19 -4 -12 33 -105 67 -166 18 -31 11 -57 -31
-118 -23 -33 -52 -91 -65 -128 l-24 -67 0 -1135 0 -1135 24 -66 c51 -146 159
-257 307 -316 40 -17 111 -18 829 -23 l785 -5 2 -30 c2 -16 8 -55 15 -85 7
-30 13 -59 13 -65 1 -5 7 -28 13 -51 7 -23 17 -99 22 -170 6 -71 15 -165 20
-209 6 -44 10 -96 10 -117 l0 -38 -795 0 c-541 0 -811 -4 -847 -11 -133 -28
-282 -139 -340 -254 -61 -119 -58 -54 -58 -1281 0 -1091 1 -1124 20 -1186 53
-171 201 -306 377 -343 101 -22 2165 -22 2266 0 176 37 324 172 377 343 19 61
20 94 20 621 l0 556 93 90 c127 125 332 316 597 557 l105 96 5 -942 5 -941 23
-56 c70 -175 214 -297 386 -328 41 -8 403 -11 1125 -11 1170 0 1129 -2 1253
61 84 42 168 125 212 208 68 130 66 79 66 1277 0 1046 -1 1083 -20 1158 -11
43 -34 103 -51 133 -41 71 -126 153 -198 192 -116 61 -104 61 -1013 61 -456 0
-828 2 -828 5 0 2 16 30 36 61 20 31 39 73 41 94 17 123 -105 228 -231 200
-57 -13 -132 -49 -175 -86 -18 -14 -33 -25 -35 -23 -2 2 -15 36 -29 74 -30 84
-109 247 -160 329 -21 33 -37 67 -37 76 0 8 -8 26 -17 40 -16 23 -16 23 3 14
11 -5 484 -10 1154 -12 1107 -2 1137 -2 1200 17 173 53 308 201 346 380 20 98
20 2184 0 2282 -38 179 -172 326 -344 379 -62 19 -95 20 -1181 20 -701 0
-1129 -4 -1150 -10 -19 -5 -36 -8 -38 -6 -2 2 14 48 35 102 55 139 125 356
170 531 l39 148 1039 5 c825 4 1047 8 1079 19 119 39 236 132 294 234 17 30
40 90 51 133 19 75 20 112 20 1158 0 1187 2 1144 -61 1268 -42 84 -125 168
-208 212 -130 68 -81 66 -1262 66 -713 0 -1085 -4 -1125 -11 -139 -25 -287
-132 -351 -255 -36 -67 -63 -160 -63 -212 l0 -34 -57 49 c-212 182 -470 314
-758 389 -268 69 -240 68 -1460 71 -793 3 -1119 1 -1168 -8 -182 -30 -343
-171 -397 -347 -18 -58 -20 -93 -20 -396 l0 -333 -198 -199 c-177 -177 -262
-271 -410 -451 l-43 -53 98 6 c85 6 100 9 115 29 39 49 414 375 433 375 3 0 4
-71 3 -157 l-3 -157 -30 -7 c-16 -4 -110 -19 -208 -34 -98 -15 -176 -30 -173
-32 3 -4 211 19 384 42 l33 4 -3 -57 -3 -56 -40 -8 c-82 -17 -728 -128 -745
-128 -6 0 -10 285 -10 763 0 840 1 819 -63 941 -64 123 -212 230 -351 255 -40
7 -410 11 -1130 10 -888 -1 -1081 -3 -1130 -15z m6627 -937 c286 -196 524
-497 667 -839 l40 -98 0 -378 c0 -307 3 -389 15 -437 19 -70 55 -144 97 -197
l31 -40 -7 -111 c-23 -384 -147 -860 -338 -1302 -124 -285 -347 -667 -532
-910 l-61 -80 -5 555 c-5 551 -5 555 -28 609 -60 141 -164 243 -303 298 -38
15 -96 18 -457 23 l-413 5 115 230 c63 127 147 284 186 350 39 66 78 135 85
153 l14 32 175 0 c196 0 252 9 346 53 78 36 185 139 222 212 60 118 58 78 58
1042 0 486 4 883 8 883 5 0 43 -24 85 -53z m-1715 -2155 c-7 -10 -55 -57 -107
-105 -94 -86 -110 -93 -111 -44 0 9 -3 17 -6 17 -5 0 -46 -26 -73 -46 -5 -4
32 -104 39 -104 4 0 17 11 30 25 46 49 56 23 10 -28 l-30 -34 7 -109 6 -109
-42 -28 c-136 -90 -383 -161 -606 -174 -120 -7 -117 -8 -290 116 -157 112
-200 155 -219 222 -9 29 -16 62 -15 73 0 12 10 -7 20 -41 22 -71 55 -105 215
-219 125 -89 185 -124 212 -124 12 0 22 1 22 3 0 1 14 42 30 91 17 49 28 91
26 93 -2 3 -47 -1 -98 -8 -113 -14 -153 -8 -198 30 -43 36 -33 52 12 20 29
-21 44 -24 123 -24 50 0 110 4 135 8 45 8 45 8 66 72 l22 65 -21 0 c-12 0
-106 -21 -209 -47 -184 -46 -188 -47 -222 -30 -38 18 -64 64 -72 127 -4 32 -3
33 5 8 15 -46 49 -93 77 -108 24 -13 42 -10 197 29 356 90 644 182 759 243 51
27 64 38 66 61 4 31 -5 33 -63 12 -73 -26 -91 -21 -115 31 -11 26 -20 48 -20
50 0 2 102 4 226 4 215 0 225 -1 212 -18z m2422 -2338 l0 -885 -52 43 c-28 24
-97 90 -152 148 -55 58 -145 148 -198 201 -103 101 -121 131 -133 215 -6 49
-11 56 -81 118 -41 36 -82 70 -92 75 -21 12 -23 9 103 152 199 224 446 560
569 772 15 26 30 47 32 47 2 0 4 -398 4 -886z m885 -1924 c44 0 125 -93 125
-144 0 -8 -39 -56 -86 -105 l-86 -91 -92 0 -91 0 -2 46 c-1 26 -12 78 -24 116
l-23 70 29 25 c63 52 176 98 213 87 8 -2 24 -4 37 -4z m-1702 -376 c70 -14
209 -72 221 -93 10 -16 9 -15 -122 28 -124 42 -251 65 -301 55 -34 -7 -107 4
-97 14 24 23 177 21 299 -4z"/>
<path d="M4875 7464 c-49 -18 -94 -34 -99 -36 -11 -5 12 -126 25 -133 8 -5
197 69 211 83 10 10 -18 97 -35 109 -7 6 -47 -4 -102 -23z"/>
<path d="M4614 7379 l-90 -29 -18 -57 c-10 -32 -21 -64 -24 -72 -4 -12 4 -13
44 -7 81 11 235 58 241 74 10 25 -26 122 -45 121 -9 0 -58 -13 -108 -30z"/>
<path d="M4980 7325 c-14 -8 -58 -26 -97 -41 -40 -15 -73 -29 -73 -33 1 -16
28 -163 31 -166 6 -5 168 62 185 76 23 19 14 179 -10 179 -6 -1 -22 -7 -36
-15z"/>
<path d="M4655 7214 c-66 -18 -136 -35 -156 -38 -35 -6 -37 -9 -64 -89 -15
-45 -30 -88 -33 -96 -4 -11 6 -12 54 -7 151 18 354 70 354 91 0 21 -23 152
-29 160 -4 7 -47 0 -126 -21z"/>
<path d="M350 6917 c-173 -59 -298 -199 -336 -376 -20 -98 -20 -2184 0 -2282
38 -179 173 -327 346 -380 63 -19 93 -19 1200 -17 l1135 3 78 37 c95 46 192
134 236 217 64 120 61 65 61 1279 0 975 -2 1111 -16 1166 -37 145 -132 259
-273 329 l-84 42 -1141 2 -1141 3 -65 -23z"/>
<path d="M386 3074 c-162 -39 -294 -161 -359 -332 l-22 -57 -3 -1107 c-3
-1209 -4 -1169 55 -1294 38 -81 128 -174 212 -218 130 -68 80 -66 1262 -66
713 0 1085 4 1125 11 187 33 350 186 399 374 23 88 23 2231 0 2319 -48 185
-186 323 -372 371 -83 22 -2207 21 -2297 -1z"/>
</g>
</svg>
